<svg id="Layer_1" data-name="Layer 1" xmlns="http://www.w3.org/2000/svg" viewBox="0 0 803 142.37">
    <defs>
        <style>
            .cls-1 {
                fill: none;
            }

            .cls-2 {
                fill: #0172ff;
            }

            .cls-3 {
                fill: #009bff;
            }
        </style>
    </defs>
    <path class="cls-1" d="M947,625l3-17H834s-1.68,9.78-3.88,22.23q6,.1,12,.25L843,625Z"
        transform="translate(-368 -571.46)" />
    <path class="cls-2"
        d="M466,618l13.62,48.07q17.29-4,34.88-7.54c-9.94-34.25-21.16-72.79-22.1-75.5-1.4-4-6.4-10-13.56-10.88S465,572,458.45,576.06,447.9,587.6,447.9,587.6L380.13,693.12q23-7.26,46.69-13.74Z"
        transform="translate(-368 -571.46)" />
    <path class="cls-2"
        d="M588,614c1-6,5.71-7.37,12-8,10-1,29.83-.37,36,1,9,2,7,10,7,10l-3.8,22.07q17.29-1.94,34.8-3.45c2.84-17,5-30.87,5-33.62,0-12-9-25-27-28-23.86-4-63-5-82,10-13.73,10.84-15.25,24-15.63,25.87-1.55,7.57-4.44,24.52-7.41,42.48q17.65-3.14,35.55-5.85C585.31,630,587.63,616.2,588,614Z"
        transform="translate(-368 -571.46)" />
    <path class="cls-2" d="M1034.88,618H1000l-4.2,24.32q17.18,2.25,34.15,4.87Z" transform="translate(-368 -571.46)" />
    <polygon class="cls-2" points="674.8 2.62 640 2.54 634 36.54 669 36.54 674.8 2.62" />
    <polygon class="cls-2" points="803 2.54 695 2.54 689 36.54 796 36.54 803 2.54" />
    <path class="cls-2" d="M1125,618h-35.4l-6.77,38.41q17.12,3.33,34,7.05Z" transform="translate(-368 -571.46)" />
    <path class="cls-2"
        d="M830.12,630.23C832.32,617.78,834,608,834,608H950l-3,17H843l-.93,5.48q68.46,1.71,134.3,9.44c2-3.31,5.66-10.59,7.63-21.92,4-23,0-44-25-44H805s-4.69,29.46-9.22,56l8.22,0Q817.1,630,830.12,630.23Z"
        transform="translate(-368 -571.46)" />
    <path class="cls-2" d="M736,574H701q-5.16,30.13-10.31,60.26,17-1.29,34.22-2.18C729.82,604.88,736,574,736,574Z"
        transform="translate(-368 -571.46)" />
    <path class="cls-3" d="M406,712l20.82-32.62q-23.67,6.48-46.69,13.74L368,712Z" transform="translate(-368 -571.46)" />
    <path class="cls-3" d="M483,678H437l-22,34H530s-7.32-25.28-15.5-53.47q-17.58,3.57-34.88,7.54Z"
        transform="translate(-368 -571.46)" />
    <path class="cls-3" d="M571.44,712s6.24-36.91,11.07-65.5q-17.89,2.71-35.55,5.85c-4.7,28.55-9.6,59.65-9.6,59.65Z"
        transform="translate(-368 -571.46)" />
    <path class="cls-3" d="M626.64,712h34.08s7.87-43.92,13.28-76.38q-17.49,1.53-34.8,3.45Z"
        transform="translate(-368 -571.46)" />
    <path class="cls-3" d="M1019,712l11-64.81q-17-2.62-34.15-4.87l-12,69.68Z" transform="translate(-368 -571.46)" />
    <path class="cls-3" d="M1108,712l8.78-48.54q-16.85-3.72-34-7.05L1073,712Z" transform="translate(-368 -571.46)" />
    <path class="cls-3"
        d="M828.24,712H934c28,0,37.23-24.94,39-32a104,104,0,0,0,2-38s.54-.71,1.37-2.08q-65.74-7.65-134.3-9.44ZM941,660l-3,18H868l3-18Z"
        transform="translate(-368 -571.46)" />
    <path class="cls-3"
        d="M686,693c23.15,30.87,97,21,114,11,14.65-8.62,18-16,20-22,3.61-10.82,6.43-30.9,10.12-51.77Q817.1,630,804,630l-8.22,0c-3.3,19.36-6.52,37.18-7.78,41-3,9-25,9-37,9-7.28,0-31,0-32-8-.41-3.31,2.43-20.7,5.91-39.92q-17.2.9-34.22,2.18l-7.8,45.53A18.32,18.32,0,0,0,686,693Z"
        transform="translate(-368 -571.46)" />
</svg>