<svg width="669" height="548" viewBox="0 0 669 548" fill="none" xmlns="http://www.w3.org/2000/svg">
    <path
        d="M436.539 3.9091L436.511 3.90913C418.531 3.92793 403.329 4.77076 387.589 12.0085L384.109 13.6992L384.1 13.7033C361.832 24.4336 345.603 41.086 331.906 61.1192C331.903 61.1234 331.9 61.1275 331.898 61.1316L328.825 65.7268L328.819 65.7366L328.812 65.7463C325.332 70.8628 321.859 75.977 318.407 81.1024C315.999 84.6772 313.585 88.2481 311.165 91.8152L311.164 91.8177C306.318 98.9454 301.474 106.071 296.643 113.203C290.774 121.875 284.888 130.542 278.949 139.18L278.948 139.181C270.838 150.965 262.806 162.797 254.818 174.661C247.581 185.407 240.318 196.145 232.964 206.833L232.964 206.833C224.903 218.548 216.913 230.308 208.933 242.084C201.71 252.743 194.479 263.409 187.175 274.033L187.174 274.034C180.151 284.241 173.176 294.475 166.257 304.743C155.449 320.794 144.576 336.806 133.597 352.759L133.597 352.76C122.163 369.368 110.786 386 99.5341 402.709C92.2269 413.562 84.8882 424.402 77.4596 435.194L77.4592 435.194C71.0889 444.444 64.7872 453.736 58.5216 463.056C58.5215 463.056 58.5215 463.056 58.5214 463.056L57.4406 464.665C50.4134 475.123 43.3621 485.616 35.9972 495.931L35.9947 495.935C29.6381 504.811 23.457 513.757 17.4899 522.855L17.4853 522.862M436.539 3.9091L14.9767 521.217L17.4853 522.862M436.539 3.9091L436.567 3.90853M436.539 3.9091L436.567 3.90853M17.4853 522.862L14.859 526.891L14.8545 526.898L12.3549 530.71L12.3442 530.726L10.0126 534.333L10.0105 534.336C7.76975 537.793 6.17605 540.922 4.56427 544.517M17.4853 522.862L4.56427 544.517M4.56427 544.517H4.68268H4.995H5.30729H5.61954H5.93175H6.24394H6.55608H6.86819H7.18027H7.49232H7.80433H8.1163H8.42824H8.74015H9.05202H9.36386H9.67566H9.98744H10.2992H10.6109H10.9225H11.2342H11.5458H11.8574H12.1689H12.4804H12.7919H13.1033H13.4147H13.7261H14.0374H14.3487H14.66H14.9712H15.2825H15.5936H15.9048H16.2159H16.527H16.838H17.149H17.46H17.771H18.0819H18.3928H18.7036H19.0144H19.3252H19.636H19.9467H20.2574H20.5681H20.8787H21.1893H21.4999H21.8104H22.1209H22.4314H22.7419H23.0523H23.3627H23.673H23.9833H24.2936H24.6039H24.9141H25.2243H25.5345H25.8446H26.1548H26.4648H26.7749H27.0849H27.3949H27.7049H28.0148H28.3247H28.6346H28.9444H29.2542H29.564H29.8738H30.1835H30.4932H30.8029H31.1125H31.4221H31.7317H32.0413H32.3508H32.6603H32.9697H33.2792H33.5886H33.898H34.2073H34.5167H34.826H35.1352H35.4445H35.7537H36.0629H36.372H36.6812H36.9903H37.2993H37.6084H37.9174H38.2264H38.5354H38.8443H39.1532H39.4621H39.7709H40.0798H40.3886H40.6974H41.0061H41.3148H41.6235H41.9322H42.2408H42.5494H42.858H43.1666H43.4751H43.7837H44.0921H44.4006H44.709H45.0174H45.3258H45.6342H45.9425H46.2508H46.5591H46.8673H47.1756H47.4838H47.792H48.1001H48.4082H48.7163H49.0244H49.3325H49.6405H49.9485H50.2565H50.5644H50.8724H51.1803H51.4882H51.796H52.1038H52.4117H52.7194H53.0272H53.3349H53.6427H53.9503H54.258H54.5656H54.8733H55.1809H55.4884H55.796H56.1035H56.411H56.7185H57.0259H57.3334H57.6408H57.9482H58.2555H58.5629H58.8702H59.1775H59.4848H59.792H60.0992H60.4064H60.7136H61.0208H61.3279H61.635H61.9421H62.2492H62.5563H62.8633H63.1703H63.4773H63.7842H64.0912H64.3981H64.705H65.0119H65.3187H65.6256H65.9324H66.2392H66.546H66.8527H67.1594H67.4662H67.7729H68.0795H68.3862H68.6928H68.9994H69.306H69.6126H69.9191H70.2256H70.5322H70.8386H71.1451H71.4516H71.758H72.0644H72.3708H72.6772H72.9835H73.2898H73.5961H73.9024H74.2087H74.515H74.8212H75.1274H75.4336H75.7398H76.046H76.3521H76.6582H76.9643H77.2704H77.5765H77.8825H78.1886H78.4946H78.8006H79.1065H79.4125H79.7184H80.0244H80.3303H80.6362H80.942H81.2479H81.5537H81.8595H82.1653H82.4711H82.7769H83.0826H83.3884H83.6941H83.9998H84.3054H84.6111H84.9168H85.2224H85.528H85.8336H86.1392H86.4447H86.7503H87.0558H87.3613H87.6668H87.9723H88.2778H88.5832H88.8887H89.1941H89.4995H89.8049H90.1103H90.4156H90.721H91.0263H91.3316H91.6369H91.9422H92.2475H92.5527H92.8579H93.1632H93.4684H93.7736H94.0787H94.3839H94.6891H94.9942H95.2993H95.6044H95.9095H96.2146H96.5196H96.8247H97.1297H97.4348H97.7398H98.0448H98.3497H98.6547H98.9597H99.2646H99.5695H99.8744H100.179H100.484H100.789H101.094H101.399H101.704H102.008H102.313H102.618H102.923H103.228H103.532H103.837H104.142H104.447H104.751H105.056H105.361H105.665H105.97H106.275H106.579H106.884H107.189H107.493H107.798H108.102H108.407H108.712H109.016H109.321H109.625H109.93H110.234H110.539H110.843H111.148H111.452H111.756H112.061H112.365H112.67H112.974H113.279H113.583H113.887H114.192H114.496H114.8H115.105H115.409H115.713H116.018H116.322H116.626H116.931H117.235H117.539H117.843H118.148H118.452H118.756H119.06H119.365H119.669H119.973H120.277H120.581H120.885H121.19H121.494H121.798H122.102H122.406H122.71H123.014H123.319H123.623H123.927H124.231H124.535H124.839H125.143H125.447H125.751H126.055H126.359H126.663H126.967H127.271H127.575H127.879H128.183H128.487H128.791H129.095H129.399H129.703H130.007H130.311H130.615H130.919H131.223H131.527H131.831H132.134H132.438H132.742H133.046H133.35H133.654H133.958H134.262H134.565H134.869H135.173H135.477H135.781H136.085H136.389H136.692H136.996H137.3H137.604H137.908H138.211H138.515H138.819H139.123H139.427H139.73H140.034H140.338H140.642H140.945H141.249H141.553H141.857H142.161H142.464H142.768H143.072H143.375H143.679H143.983H144.287H144.59H144.894H145.198H145.502H145.805H146.109H146.413H146.716H147.02H147.324H147.628H147.931H148.235H148.539H148.842H149.146H149.45H149.753H150.057H150.361H150.664H150.968H151.272H151.576H151.879H152.183H152.487H152.79H153.094H153.398H153.701H154.005H154.309H154.612H154.916H155.208C156.29 542.432 156.704 541.823 158.733 538.872C158.734 538.872 158.734 538.871 158.734 538.871L161.805 534.36L161.806 534.358L165.262 529.275L165.263 529.273C168.455 524.586 171.644 519.898 174.831 515.208L176.804 512.305L176.804 512.304C182.532 503.878 188.242 495.44 193.935 486.993C202.528 474.236 211.139 461.489 219.78 448.759L219.78 448.759C228.812 435.457 237.838 422.156 246.822 408.831C260.118 389.102 273.466 369.405 286.831 349.721L289.313 351.406L286.831 349.721C303.688 324.894 320.533 300.065 337.298 275.189C340.362 270.643 343.427 266.097 346.495 261.552L346.495 261.552L349.652 256.877L349.652 256.877L355.938 247.566L355.939 247.565L356.244 247.113C361.181 239.803 366.112 232.502 370.999 225.175L371.001 225.172M4.56427 544.517L401.819 185.954C392.051 198.936 383.114 212.374 374.143 225.865L373.497 226.836L371.001 225.172M371.001 225.172L371.668 224.169C381.311 209.668 390.979 195.13 401.703 181.147L405.324 176.426L406.967 182.145C410.082 192.989 413.251 203.817 416.48 214.63C420.84 229.223 425.133 243.838 429.264 258.504C433.128 272.221 437.049 285.845 441.474 299.349M371.001 225.172L441.474 299.349M652.927 493.16C656.871 505.141 660.694 517.147 664.359 529.206M652.927 493.16C647.92 477.976 643.032 462.793 638.663 447.434C635.038 434.659 631.252 421.941 627.303 409.252M652.927 493.16L650.077 494.098C650.078 494.099 650.078 494.099 650.078 494.1M652.927 493.16L650.078 494.1M664.359 529.206L544.368 140.526C549.096 155.665 553.776 170.817 558.457 185.969L559.53 189.444C561.61 196.174 563.69 202.903 565.771 209.633C566.797 212.95 567.822 216.266 568.846 219.584M664.359 529.206L665.724 533.667M664.359 529.206L197.365 547.517M627.303 409.252L626.791 407.61C623.989 398.619 621.188 389.629 618.487 380.61C614.264 366.498 609.922 352.438 605.31 338.434M627.303 409.252L624.439 410.144L623.928 408.506C621.127 399.516 618.32 390.508 615.613 381.47L615.613 381.47C611.395 367.375 607.061 353.343 602.461 339.374M627.303 409.252L624.439 410.145C628.38 422.81 632.159 435.503 635.776 448.253L635.777 448.254C640.164 463.676 645.067 478.906 650.078 494.1M605.31 338.434C600.292 323.224 595.396 308.014 591.019 292.627C586.461 276.576 581.598 260.622 576.633 244.68M605.31 338.434L602.461 339.373C602.461 339.373 602.461 339.374 602.461 339.374M605.31 338.434L602.461 339.374M576.633 244.68C574.025 236.318 571.432 227.952 568.846 219.584M576.633 244.68L573.769 245.572C573.769 245.572 573.769 245.572 573.769 245.573M576.633 244.68L573.769 245.573M568.846 219.584L565.98 220.469C564.956 217.152 563.931 213.835 562.905 210.519C560.824 203.789 558.743 197.059 556.664 190.329L555.578 186.814C550.902 171.675 546.227 156.541 541.504 141.42L209.581 526.298C209.58 526.3 209.579 526.302 209.577 526.304L207.29 529.728L207.284 529.738C203.95 534.687 201.188 539.367 198.735 544.517M568.846 219.584L565.98 220.469C568.566 228.839 571.16 237.208 573.769 245.573M573.769 245.573C578.731 261.506 583.586 277.431 588.133 293.447L588.133 293.448C592.528 308.897 597.44 324.154 602.461 339.374M650.078 494.1C654.016 506.062 657.832 518.045 661.489 530.079L661.49 530.084L662.852 534.533L665.724 533.667M665.724 533.667L662.855 534.545L664.079 538.603L664.079 538.604L664.611 540.366L665.133 542.095M665.724 533.667L666.951 537.737L668.023 541.287M665.133 542.095C665.493 543.49 665.622 544.014 665.688 544.517M665.133 542.095C665.128 542.076 665.123 542.056 665.118 542.037L668.023 541.287M665.133 542.095L665.151 542.155L668.023 541.287M665.688 544.517H665.099H664.182H663.264H662.346H661.428H660.51H659.592H658.675H657.757H656.839H655.921H655.003H654.085H653.168H652.25H651.332H650.414H649.496H648.578H647.66H646.742H645.825H644.907H643.989H643.071H642.153H641.235H640.317H639.399H638.481H637.563H636.645H635.727H634.809H633.891H632.974H632.055H631.138H630.219H629.302H628.383H627.465H626.547H625.629H624.711H623.793H622.875H621.957H621.039H620.121H619.203H618.285H617.366H616.448H615.53H614.612H613.694H612.775H611.857H610.939H610.021H609.102H608.184H607.266H606.348H605.429H604.511H603.593H602.674H601.756H600.837H599.919H599.001H598.082H597.164H596.245H595.327H594.408H593.49H592.571H591.653H590.734H589.815H588.897H587.978H587.059H586.141H585.222H584.303H583.385H582.466H581.547H580.628H579.709H578.791H577.872H576.953H576.034H575.115H574.196H573.277H572.358H571.439H570.52H569.601H568.682H567.763H566.844H565.925H565.006H564.086H563.167H562.248H561.329H560.409H559.49H558.571H557.651H556.732H555.812H554.893H553.974H553.054H552.135H551.215H550.295H549.376H548.456H547.537H546.617H545.697H544.777H543.858H542.938H542.018H541.098H540.178H539.258H538.338H537.418H536.498H535.578H534.658H533.738H532.818H531.898H530.978H530.057H529.137H528.217H527.297H526.376H525.456H524.535H523.615H522.694H521.774H520.853H519.933H519.012H518.092H517.171H516.25H515.329H514.409H513.488H512.567H511.646H510.725H509.804H508.883H507.962H507.041H506.12H505.199H504.277H503.356H502.435H501.513H500.592H499.671H498.749H497.828H496.906H495.985H495.063H494.142H493.22H492.298H491.376H490.455H489.533H488.611H487.689H486.767H485.845H484.923H484.001H483.079H482.156H481.234H480.312H479.39H478.467H477.545H476.623H475.7H474.778H473.855H472.932H472.01H471.087H470.164H469.241H468.319H467.396H466.473H465.55H464.627H463.704H462.781H461.857H460.934H460.011H459.088H458.164H457.241H456.317H455.394H454.47H453.547H452.623H451.699H450.776H449.852H448.928H448.004H447.08H446.156H445.232H444.308H443.384H442.459H441.535H440.611H439.686H438.762H437.838H436.913H435.988H435.064H434.139H433.214H432.29H431.365H430.44H429.515H428.59H427.665H426.74H425.814H424.889H423.964H423.038H422.113H421.188H420.262H419.336H418.411H417.485H416.559H415.633H414.708H413.782H412.856H411.93H411.004H410.077H409.151H408.225H407.298H406.372H405.446H404.519H403.592H402.666H401.739H400.812H399.885H398.959H398.032H397.105H396.177H395.25H394.323H393.396H392.469H391.541H390.614H389.686H388.758H387.831H386.903H385.975H385.047H384.12H383.192H382.263H381.335H380.407H379.479H378.551H377.622H376.694H375.765H374.837H373.908H372.979H372.051H371.122H370.193H369.264H368.335H367.406H366.476H365.547H364.618H363.688H362.759H361.829H360.9H359.97H359.04H358.11H357.18H356.25H355.32H354.39H353.46H352.53H351.599H350.669H349.739H348.808H347.877H346.947H346.016H345.085H344.154H343.223H342.292H341.361H340.43H339.498H338.567H337.635H336.704H335.772H334.841H333.909H332.977H332.045H331.113H330.181H329.249H328.317H327.384H326.452H325.519H324.587H323.654H322.722H321.789H320.856H319.923H318.99H318.057H317.124H316.19H315.257H314.324H313.39H312.456H311.523H310.589H309.655H308.721H307.787H306.853H305.919H304.985H304.05H303.116H302.182H301.247H300.312H299.378H298.443H297.508H296.573H295.638H294.702H293.767H292.832H291.896H290.961H290.025H289.09H288.154H287.218H286.282H285.346H284.41H283.473H282.537H281.601H280.664H279.728H278.791H277.854H276.917H275.98H275.043H274.106H273.169H272.232H271.294H270.357H269.419H268.482H267.544H266.606H265.668H264.73H263.792H262.854H261.915H260.977H260.038H259.1H258.161H257.222H256.283H255.344H254.405H253.466H252.527H251.588H250.648H249.709H248.769H247.829H246.889H245.949H245.009H244.069H243.129H242.189H241.248H240.308H239.367H238.426H237.486H236.545H235.604H234.663H233.721H232.78H231.839H230.897H229.956H229.014H228.072H227.13H226.188H225.246H224.304H223.361H222.419H221.476H220.534H219.591H218.648H217.705H216.762H215.819H214.876H213.933H212.989H212.046H211.102H210.158H209.214H208.27H207.326H206.382H205.438H204.493H203.549H202.604H201.659H200.715H199.77H198.825H198.735M665.688 544.517C665.692 544.544 665.695 544.571 665.699 544.599C665.766 545.157 665.771 545.778 665.771 547.517H197.365M665.688 544.517H666.017H666.935H667.853H668.706C668.694 544.382 668.679 544.251 668.662 544.12C668.564 543.385 668.377 542.662 668.023 541.287M198.735 544.517C198.268 545.498 197.811 546.496 197.365 547.517M198.735 544.517H197.88H196.934H195.989H195.423C198.1 538.695 201.118 533.52 204.796 528.062L197.365 547.517M253.108 457.714C246.641 467.297 240.077 476.817 233.469 486.314L255.595 459.392M253.108 457.714L255.594 459.393L255.595 459.392M253.108 457.714L255.595 459.392M253.108 457.714L255.029 454.869C258.047 450.396 261.057 445.919 264.058 441.436M255.595 459.392L257.515 456.548L257.515 456.547C260.534 452.074 263.545 447.595 266.547 443.111L266.547 443.111L264.058 441.436M264.058 441.436L266.551 443.104L269.837 438.224L269.841 438.218L272.654 434.018M264.058 441.436L267.349 436.549L270.186 432.312M270.186 432.312L272.628 434.055L272.654 434.018M270.186 432.312L272.679 433.981L272.654 434.018M270.186 432.312L273.504 427.667L275.492 424.353M272.654 434.018L275.945 429.41L276.015 429.313L276.076 429.21L278.029 425.957M278.029 425.957C278.016 425.976 278.003 425.995 277.991 426.014L275.492 424.353M278.029 425.957C281.443 420.824 283.612 417.724 288.654 416.101M278.029 425.957L278.065 425.897L275.492 424.353M275.492 424.353C278.97 419.123 281.668 415.087 288.072 413.14M288.654 416.101C288.547 416.11 288.441 416.119 288.334 416.128L288.072 413.14M288.654 416.101C293.281 415.712 297.783 415.705 302.543 415.837L302.586 415.838L302.629 415.838L308.206 415.832L308.211 412.832M288.654 416.101C288.75 416.07 288.847 416.04 288.944 416.01L288.072 413.14M288.072 413.14C292.975 412.71 297.703 412.702 302.626 412.838L308.211 412.832M308.211 412.832L308.214 415.832H308.21L468.146 388.898L469.832 394.328L469.833 394.329C471.453 399.556 473.072 404.782 474.695 410.007L475.767 413.46L476.991 417.402L472.864 417.35C450.67 417.067 428.477 416.842 406.283 416.7L403.652 416.684C393.211 416.623 382.759 416.561 372.308 416.435L372.304 416.435C361.22 416.288 350.146 416.157 339.072 416.107C339.071 416.107 339.07 416.107 339.068 416.107L339.082 413.107M308.211 412.832C314.286 412.842 320.354 412.945 326.428 413.05C330.646 413.074 334.864 413.093 339.082 413.107M339.082 413.107C350.17 413.157 361.256 413.288 372.344 413.436L339.082 413.107ZM441.474 299.349C446.852 315.654 451.783 332.014 456.382 348.522L456.384 348.532C460.101 362.054 463.995 375.497 468.145 388.896L441.474 299.349ZM441.474 299.349C441.474 299.35 441.474 299.351 441.474 299.352L438.624 300.286L441.473 299.346C441.473 299.347 441.473 299.348 441.474 299.349ZM436.567 3.90853L442.693 3.78557C442.701 3.78554 442.71 3.78552 442.718 3.78549C464.507 3.72055 480.001 9.74217 495.73 23.6488C509.927 37.4967 515.291 55.6331 520.896 74.5829C521.681 77.2398 522.472 79.9127 523.292 82.592L526.161 81.7138L523.292 82.5921C524.8 87.516 526.323 92.4344 527.847 97.3486C527.847 97.3488 527.848 97.3489 527.848 97.3491L530.713 96.4601L436.567 3.90853Z"
        stroke="white" stroke-width="6" />
</svg>